<svg version="1.0" id="Layer_1" xmlns="http://www.w3.org/2000/svg" xmlns:xlink="http://www.w3.org/1999/xlink" viewBox="0 0 64 64" enable-background="new 0 0 64 64" xml:space="preserve" fill="#000000"><g id="SVGRepo_bgCarrier" stroke-width="0"></g><g id="SVGRepo_tracerCarrier" stroke-linecap="round" stroke-linejoin="round"></g><g id="SVGRepo_iconCarrier"> <g> <path fill="#231F20" d="M56,44c-1.832,0-4-2.168-4-4V20C52,8.973,43.027,0,32,0S12,8.973,12,20v20c0,1.793-2.207,4-4,4 c-2.211,0-4,1.789-4,4s1.789,4,4,4h48c2.211,0,4-1.789,4-4S58.211,44,56,44z"></path> <path fill="#231F20" d="M32,64c4.418,0,8-3.582,8-8H24C24,60.418,27.582,64,32,64z"></path> </g> </g></svg>