<svg fill="#000000" viewBox="0 0 24 24" id="burger" data-name="Flat Line" xmlns="http://www.w3.org/2000/svg" class="icon flat-line"><g id="SVGRepo_bgCarrier" stroke-width="0"></g><g id="SVGRepo_tracerCarrier" stroke-linecap="round" stroke-linejoin="round"></g><g id="SVGRepo_iconCarrier"><path id="secondary" d="M15,5H9A4,4,0,0,0,5,9v2H19V9A4,4,0,0,0,15,5Zm4,10H5a4,4,0,0,0,4,4h6A4,4,0,0,0,19,15Z" style="fill: #2ca9bc; stroke-width: 2;"></path><path id="primary" d="M15,5H9A4,4,0,0,0,5,9v2H19V9A4,4,0,0,0,15,5Zm4,10H5a4,4,0,0,0,4,4h6A4,4,0,0,0,19,15Zm0,0H5a2,2,0,0,1-2-2H3a2,2,0,0,1,2-2H19a2,2,0,0,1,2,2h0A2,2,0,0,1,19,15Z" style="fill: none; stroke: #000000; stroke-linecap: round; stroke-linejoin: round; stroke-width: 2;"></path></g></svg>