<svg fill="#000000" viewBox="0 0 24 24" id="chicken" data-name="Flat Line" xmlns="http://www.w3.org/2000/svg" class="icon flat-line"><g id="SVGRepo_bgCarrier" stroke-width="0"></g><g id="SVGRepo_tracerCarrier" stroke-linecap="round" stroke-linejoin="round"></g><g id="SVGRepo_iconCarrier"><path id="secondary" d="M19.54,11.53a15.59,15.59,0,0,1-5.49,3.35,10.06,10.06,0,0,1-3,.87L8.25,12.93a10.06,10.06,0,0,1,.87-3,15.59,15.59,0,0,1,3.35-5.49,5,5,0,0,1,7.07,7.07Z" style="fill: #2ca9bc; stroke-width: 2;"></path><path id="primary" d="M8.34,18.49l2.74-2.74h0L8.25,12.93h0L5.51,15.66A2,2,0,0,0,3.59,19a1.94,1.94,0,0,0,.9.51,1.94,1.94,0,0,0,.51.9,2,2,0,0,0,3.34-1.92Z" style="fill: none; stroke: #000000; stroke-linecap: round; stroke-linejoin: round; stroke-width: 2;"></path><path id="primary-2" data-name="primary" d="M19.54,11.53a15.59,15.59,0,0,1-5.49,3.35,10.06,10.06,0,0,1-3,.87L8.25,12.93a10.06,10.06,0,0,1,.87-3,15.59,15.59,0,0,1,3.35-5.49,5,5,0,0,1,7.07,7.07Z" style="fill: none; stroke: #000000; stroke-linecap: round; stroke-linejoin: round; stroke-width: 2;"></path></g></svg>