<svg fill="#000000" viewBox="0 0 24 24" id="water-tap" data-name="Flat Line" xmlns="http://www.w3.org/2000/svg" class="icon flat-line"><g id="SVGRepo_bgCarrier" stroke-width="0"></g><g id="SVGRepo_tracerCarrier" stroke-linecap="round" stroke-linejoin="round"></g><g id="SVGRepo_iconCarrier"><path id="secondary" d="M17,11H14.62a1,1,0,0,1-.9-.55l-.44-.9a1,1,0,0,0-.9-.55H9.62a1,1,0,0,0-.9.55l-.44.9a1,1,0,0,1-.9.55H3v4H16a1,1,0,0,1,1,1v2a1,1,0,0,0,1,1h2a1,1,0,0,0,1-1V15A4,4,0,0,0,17,11Z" style="fill: #2ca9bc; stroke-width: 2;"></path><path id="primary" d="M8,5h6M11,5V8.84M3,9v8m14-6H14.62a1,1,0,0,1-.9-.55l-.44-.9a1,1,0,0,0-.9-.55H9.62a1,1,0,0,0-.9.55l-.44.9a1,1,0,0,1-.9.55H3v4H16a1,1,0,0,1,1,1v2a1,1,0,0,0,1,1h2a1,1,0,0,0,1-1V15A4,4,0,0,0,17,11Z" style="fill: none; stroke: #000000; stroke-linecap: round; stroke-linejoin: round; stroke-width: 2;"></path></g></svg>