<svg version="1.1" id="Layer_1" xmlns="http://www.w3.org/2000/svg" xmlns:xlink="http://www.w3.org/1999/xlink" viewBox="0 0 512.001 512.001" xml:space="preserve" fill="#000000"><g id="SVGRepo_bgCarrier" stroke-width="0"></g><g id="SVGRepo_tracerCarrier" stroke-linecap="round" stroke-linejoin="round"></g><g id="SVGRepo_iconCarrier"> <g> <rect x="204.693" y="200.418" style="fill:#FF8C78;" width="25.653" height="102.614"></rect> <rect x="392.818" y="200.418" style="fill:#FF8C78;" width="25.653" height="102.614"></rect> </g> <g> <rect x="204.693" y="226.071" style="fill:#DF7A6E;" width="25.653" height="25.653"></rect> <rect x="392.818" y="226.082" style="fill:#DF7A6E;" width="25.653" height="25.646"></rect> </g> <rect x="170.489" y="277.378" style="fill:#6DDAE1;" width="290.739" height="188.125"></rect> <polygon style="fill:#4FC4D3;" points="170.489,277.378 170.489,465.503 420.952,465.503 217.994,277.378 "></polygon> <polygon style="fill:#FFD791;" points="136.284,499.708 33.67,499.708 33.67,63.599 84.977,12.293 136.284,63.599 "></polygon> <rect x="33.67" y="106.355" style="fill:#F8BE73;" width="102.614" height="136.818"></rect> <polygon style="fill:#FFD791;" points="8.017,226.071 8.017,123.457 452.676,123.457 503.983,174.764 452.676,226.071 "></polygon> <circle style="fill:#FF8C78;" cx="84.977" cy="174.764" r="17.102"></circle> <path d="M246.914,371.441V353.27c0-13.262-10.789-24.05-24.05-24.05h-18.171c-4.428,0-8.017,3.589-8.017,8.017v68.409 c0,4.427,3.588,8.017,8.017,8.017s8.017-3.589,8.017-8.017v-26.206c0.176,0.012,0.355,0.018,0.534,0.018h3.597l14.886,29.773 c2.083,4.17,7.445,5.675,11.406,3.219c3.473-2.152,4.759-6.74,2.934-10.39l-11.301-22.603h4.131 C243.326,379.457,246.914,375.868,246.914,371.441z M212.71,363.442v-18.189h10.154c4.421,0,8.017,3.596,8.017,8.017v10.155h-17.637 C213.065,363.424,212.886,363.429,212.71,363.442z"></path> <path d="M298.756,345.253c4.428,0,8.017-3.589,8.017-8.017c0-4.427-3.588-8.017-8.017-8.017h-34.205 c-4.428,0-8.017,3.589-8.017,8.017v68.409c0,4.427,3.588,8.017,8.017,8.017h34.205c4.428,0,8.017-3.589,8.017-8.017 s-3.588-8.017-8.017-8.017h-26.188v-18.171h9.086c4.428,0,8.017-3.589,8.017-8.017s-3.588-8.017-8.017-8.017h-9.086v-18.171H298.756 z"></path> <path d="M359.148,337.236v40.457l-27.941-44.705c-1.895-3.034-5.574-4.44-9.009-3.457c-3.439,0.986-5.807,4.13-5.807,7.706v68.409 c0,4.427,3.588,8.017,8.017,8.017s8.017-3.589,8.017-8.017v-40.457l27.941,44.705c1.964,3.143,5.946,4.536,9.444,3.318 c3.181-1.109,5.371-4.196,5.371-7.567v-68.409c0-4.427-3.588-8.017-8.017-8.017S359.148,332.809,359.148,337.236z"></path> <path d="M417.937,405.645v-60.392h9.086c4.428,0,8.017-3.589,8.017-8.017c0-4.427-3.588-8.017-8.017-8.017h-34.205 c-4.428,0-8.017,3.589-8.017,8.017c0,4.427,3.588,8.017,8.017,8.017h9.086v60.392c0,4.427,3.588,8.017,8.017,8.017 S417.937,410.073,417.937,405.645z"></path> <path d="M102.079,396.56c4.428,0,8.017-3.589,8.017-8.017V285.929c0-4.427-3.588-8.017-8.017-8.017 c-4.428,0-8.017,3.589-8.017,8.017v102.614C94.063,392.97,97.651,396.56,102.079,396.56z"></path> <path d="M75.891,422.748V251.725c0-4.427-3.588-8.017-8.017-8.017s-8.017,3.589-8.017,8.017v171.023 c0,4.427,3.588,8.017,8.017,8.017S75.891,427.175,75.891,422.748z"></path> <path d="M452.676,234.088c2.126,0,4.164-0.844,5.669-2.348l51.307-51.307c3.131-3.131,3.131-8.207,0-11.337l-51.307-51.307 c-1.504-1.504-3.542-2.348-5.669-2.348H247.449c-4.428,0-8.017,3.589-8.017,8.017s3.588,8.017,8.017,8.017h201.908l43.29,43.29 l-43.29,43.29H16.033v-86.58h188.66c4.428,0,8.017-3.589,8.017-8.017s-3.588-8.017-8.017-8.017h-60.392V63.599 c0-2.126-0.844-4.165-2.347-5.668L90.646,6.624c-3.132-3.131-8.207-3.131-11.338,0L28.002,57.931 c-1.504,1.503-2.348,3.542-2.348,5.668v51.841H8.017c-4.428,0-8.017,3.589-8.017,8.017v102.614c0,4.427,3.588,8.017,8.017,8.017 h17.637v188.66c0,4.427,3.588,8.017,8.017,8.017s8.017-3.589,8.017-8.017v-188.66h86.58v257.603h-18.171v-43.29 c0-4.427-3.588-8.017-8.017-8.017c-4.428,0-8.017,3.589-8.017,8.017v43.29H41.687v-26.188c0-4.427-3.588-8.017-8.017-8.017 s-8.017,3.589-8.017,8.017v34.205c0,4.427,3.588,8.017,8.017,8.017h102.614c4.428,0,8.017-3.589,8.017-8.017v-265.62h52.376v35.273 h-26.188c-4.428,0-8.017,3.589-8.017,8.017v188.125c0,4.427,3.588,8.017,8.017,8.017h205.228c4.428,0,8.017-3.589,8.017-8.017 c0-4.427-3.588-8.017-8.017-8.017H178.505V285.395h274.706v172.092h-34.739c-4.428,0-8.017,3.589-8.017,8.017 c0,4.427,3.588,8.017,8.017,8.017h42.756c4.428,0,8.017-3.589,8.017-8.017V277.378c0-4.427-3.588-8.017-8.017-8.017h-34.739v-35.273 H452.676z M41.687,66.919l18.171-18.171v31.954c0,4.427,3.588,8.017,8.017,8.017s8.017-3.589,8.017-8.017V32.715l9.086-9.086 l43.29,43.29v48.521h-18.171v-43.29c0-4.427-3.588-8.017-8.017-8.017c-4.428,0-8.017,3.589-8.017,8.017v43.29H41.687V66.919z M212.71,269.361v-35.273h9.62v35.273H212.71z M400.835,269.361v-35.26h9.62v35.26H400.835z M384.802,269.361H238.363v-35.273 h146.438V269.361z"></path> <path d="M59.858,174.764c0,13.851,11.268,25.119,25.119,25.119s25.119-11.268,25.119-25.119c0-13.851-11.268-25.119-25.119-25.119 S59.858,160.914,59.858,174.764z M94.063,174.764c0,5.01-4.076,9.086-9.086,9.086c-5.01,0-9.086-4.076-9.086-9.086 c0-5.01,4.076-9.086,9.086-9.086C89.987,165.679,94.063,169.754,94.063,174.764z"></path> <path d="M350.597,191.867c0,4.427,3.588,8.017,8.017,8.017h94.063c4.428,0,8.017-3.589,8.017-8.017c0-4.427-3.588-8.017-8.017-8.017 h-94.063C354.185,183.85,350.597,187.439,350.597,191.867z"></path> <path d="M384.267,149.645H196.142c-4.428,0-8.017,3.589-8.017,8.017s3.588,8.017,8.017,8.017h188.125 c4.428,0,8.017-3.589,8.017-8.017S388.696,149.645,384.267,149.645z"></path> <path d="M136.284,183.85c-4.428,0-8.017,3.589-8.017,8.017c0,4.427,3.588,8.017,8.017,8.017h145.37c4.428,0,8.017-3.589,8.017-8.017 c0-4.427-3.588-8.017-8.017-8.017H136.284z"></path> </g></svg>