<svg version="1.1" id="Layer_1" xmlns="http://www.w3.org/2000/svg" xmlns:xlink="http://www.w3.org/1999/xlink" viewBox="0 0 512 512" xml:space="preserve" fill="#000000"><g id="SVGRepo_bgCarrier" stroke-width="0"></g><g id="SVGRepo_tracerCarrier" stroke-linecap="round" stroke-linejoin="round"></g><g id="SVGRepo_iconCarrier"> <g> <rect x="344.58" y="379.889" transform="matrix(0.7071 0.7071 -0.7071 0.7071 401.7972 -163.9101)" style="fill:#2C3E50;" width="108.351" height="46.336"></rect> <polygon style="fill:#2C3E50;" points="328.848,434.621 428.784,334.701 307.808,313.661 "></polygon> </g> <path style="fill:#25B6D2;" d="M452.272,272.253H59.728C26.88,272.253,0,245.373,0,212.525v-98.544 c0-32.848,26.88-59.728,59.728-59.728h392.544c32.848,0,59.728,26.88,59.728,59.728v98.544 C512,245.373,485.12,272.253,452.272,272.253z"></path> <g> <path style="fill:#FFFFFF;" d="M95.232,103.629c8.144-1.328,20.272-2.336,33.696-2.336c16.608,0,28.224,2.496,36.192,8.8 c6.64,5.312,10.304,13.104,10.304,23.408c0,14.272-10.128,24.064-19.744,27.552v0.496c7.792,3.152,12.112,10.624,14.944,20.912 c3.488,12.624,6.976,27.232,9.12,31.552H153.84c-1.824-3.152-4.48-12.288-7.808-26.064c-2.992-13.952-7.792-17.76-18.096-17.936 h-7.616v44H95.232V103.629z M120.32,151.757h9.952c12.624,0,20.096-6.304,20.096-16.096c0-10.304-6.992-15.44-18.592-15.616 c-6.144,0-9.648,0.496-11.456,0.832L120.32,151.757L120.32,151.757z"></path> <path style="fill:#FFFFFF;" d="M212.32,181.485c0.832,10.448,11.12,15.44,22.912,15.44c8.64,0,15.616-1.168,22.416-3.328 l3.312,17.104c-8.304,3.312-18.416,4.976-29.376,4.976c-27.568,0-43.328-15.936-43.328-41.328 c0-20.592,12.784-43.328,40.992-43.328c26.24,0,36.192,20.416,36.192,40.512c0,4.32-0.496,8.144-0.832,9.968H212.32V181.485z M242.032,164.221c0-6.144-2.656-16.432-14.288-16.432c-10.624,0-14.944,9.632-15.6,16.432L242.032,164.221L242.032,164.221z"></path> <path style="fill:#FFFFFF;" d="M280.576,158.733c0-10.128-0.336-18.768-0.656-25.904h21.904l1.168,11.12h0.48 c3.328-5.136,11.632-12.944,25.072-12.944c16.592,0,29.04,10.96,29.04,34.864v48.144h-25.232v-44.992 c0-10.464-3.664-17.6-12.784-17.6c-6.976,0-11.12,4.816-12.784,9.456c-0.672,1.488-0.992,3.984-0.992,6.32v46.816H280.56v-55.28 H280.576z"></path> <path style="fill:#FFFFFF;" d="M405.12,109.597v23.248h18.096v18.592H405.12v29.376c0,9.792,2.336,14.288,9.968,14.288 c3.152,0,5.648-0.336,7.472-0.672l0.176,19.088c-3.328,1.328-9.296,2.16-16.432,2.16c-8.144,0-14.96-2.816-18.928-6.976 c-4.656-4.816-6.992-12.624-6.992-24.08v-33.184H369.6v-18.592h10.784v-17.6L405.12,109.597z"></path> </g> </g></svg>