<svg viewBox="-1 0 20 20" xmlns="http://www.w3.org/2000/svg" fill="#000000"><g id="SVGRepo_bgCarrier" stroke-width="0"></g><g id="SVGRepo_tracerCarrier" stroke-linecap="round" stroke-linejoin="round"></g><g id="SVGRepo_iconCarrier"> <g id="user-4" transform="translate(-3 -2)"> <path id="secondary" fill="#B6D094" d="M9,13h6a5,5,0,0,1,5,5h0a3,3,0,0,1-3,3H7a3,3,0,0,1-3-3H4a5,5,0,0,1,5-5Z"></path> <path id="primary" d="M20,18h0a3,3,0,0,1-3,3H7a3,3,0,0,1-3-3H4a5,5,0,0,1,5-5h6A5,5,0,0,1,20,18ZM12,3a5,5,0,1,0,5,5A5,5,0,0,0,12,3Z" fill="none" stroke="#000000" stroke-linecap="round" stroke-linejoin="round" stroke-width="2"></path> </g> </g></svg>