<svg version="1.0" id="Layer_1" xmlns="http://www.w3.org/2000/svg" xmlns:xlink="http://www.w3.org/1999/xlink" viewBox="0 0 64 64" enable-background="new 0 0 64 64" xml:space="preserve" fill="#000000"><g id="SVGRepo_bgCarrier" stroke-width="0"></g><g id="SVGRepo_tracerCarrier" stroke-linecap="round" stroke-linejoin="round"></g><g id="SVGRepo_iconCarrier"> <g> <path fill="#394240" d="M60,16c-2.211,0-4,1.789-4,4c0,6.625-5.371,12-12,12s-12-5.375-12-12S37.371,8,44,8c2.211,0,4-1.789,4-4 s-1.789-4-4-4C32.953,0,24,8.953,24,20c0,0.945,0.152,1.844,0.277,2.754L3.516,43.516c-4.688,4.688-4.688,12.289,0,16.969 c4.68,4.688,12.281,4.688,16.969,0l20.762-20.762C42.156,39.848,43.055,40,44,40c11.047,0,20-8.953,20-20 C64,17.789,62.211,16,60,16z M14.828,54.828c-1.562,1.562-4.094,1.562-5.656,0s-1.562-4.094,0-5.656l18.152-18.156 c1.488,2.25,3.41,4.172,5.656,5.656L14.828,54.828z"></path> <path fill="#45AAB8" d="M14.828,54.828c-1.562,1.562-4.094,1.562-5.656,0s-1.562-4.094,0-5.656l18.152-18.156 c1.488,2.25,3.41,4.172,5.656,5.656L14.828,54.828z"></path> </g> </g></svg>